PathFileType	4	(X/Y/Z)	C:\Users\Basilio\Documents\Thesis Gigler\squatting_fais\c3dfiles\019\SJ_pre4\markers_experimental.trc
DataRate	CameraRate	NumFrames	NumMarkers	Units	OrigDataRate	OrigDataStartFrame	OrigNumFrames
200.000000	200.000000	4	59	mm	200.000000	817	1308
Frame#	Time	LBHD			RBHD			C7			T10			CLAV			LSHO			LUUPA			LMUPA			LDUPA			LLEP			LMEP			LRAD			LUL			LRFIN			RSHO			RUPA1			RMUPA			RDUPA			RLEP			RMEP			RRAD			RUL			RUFIN			LASI			USACR			LSACR			RSACR			LTHI1			LTHI2			LTHI3			LTHI4			LLFC			LTIB1			LTIB2			LTIB3			LTIB4			LLMAL			LMMAL			LHEE			LMT1			LMT2			LMT5			RTHI			RTHI2			RTHI3			RTHI4			RLFC			RTIB1			RTIB2			RTIB3			RTIB4			RLMAL			RMMAL			RHEE			RMT1			RMT2			RMT5			FHD			RASI			
		X1	Y1	Z1	X2	Y2	Z2	X3	Y3	Z3	X4	Y4	Z4	X5	Y5	Z5	X6	Y6	Z6	X7	Y7	Z7	X8	Y8	Z8	X9	Y9	Z9	X10	Y10	Z10	X11	Y11	Z11	X12	Y12	Z12	X13	Y13	Z13	X14	Y14	Z14	X15	Y15	Z15	X16	Y16	Z16	X17	Y17	Z17	X18	Y18	Z18	X19	Y19	Z19	X20	Y20	Z20	X21	Y21	Z21	X22	Y22	Z22	X23	Y23	Z23	X24	Y24	Z24	X25	Y25	Z25	X26	Y26	Z26	X27	Y27	Z27	X28	Y28	Z28	X29	Y29	Z29	X30	Y30	Z30	X31	Y31	Z31	X32	Y32	Z32	X33	Y33	Z33	X34	Y34	Z34	X35	Y35	Z35	X36	Y36	Z36	X37	Y37	Z37	X38	Y38	Z38	X39	Y39	Z39	X40	Y40	Z40	X41	Y41	Z41	X42	Y42	Z42	X43	Y43	Z43	X44	Y44	Z44	X45	Y45	Z45	X46	Y46	Z46	X47	Y47	Z47	X48	Y48	Z48	X49	Y49	Z49	X50	Y50	Z50	X51	Y51	Z51	X52	Y52	Z52	X53	Y53	Z53	X54	Y54	Z54	X55	Y55	Z55	X56	Y56	Z56	X57	Y57	Z57	X58	Y58	Z58	X59	Y59	Z59	

818	4.085	-187.7904968261719	1696.652099609375	-1026.937744140625	-189.4613189697266	1693.15380859375	-888.2484130859377	-229.4315338134766	1551.033203125	-952.6026000976565	-309.0106811523438	1261.149536132813	-943.1079101562502	-91.8235321044922	1499.194213867188	-953.071228027344	-162.7513122558594	1561.405029296875	-1090.837280273438	-208.8103485107422	1430.55322265625	-1202.095703125	-203.4107666015626	1386.186279296875	-1180.021240234375	-236.0893554687501	1374.786743164063	-1228.513916015625	-288.0418395996094	1331.190551757813	-1277.900390625	-348.7692565917969	1329.74609375	-1244.065673828125	-281.3046264648438	1104.623657226563	-1150.0703125	-264.6365966796876	1087.020629882813	-1212.527465820313	-235.0721740722657	1069.466796875	-1119.675537109375	-156.0617828369141	1555.41943359375	-824.8753662109377	-257.7931213378907	1468.155639648438	-681.9348144531251	-229.6722106933594	1429.318725585938	-672.0561523437501	-277.9790649414063	1418.048461914063	-636.4552001953126	-296.4059753417969	1345.888427734375	-597.9715576171876	-357.2835388183594	1355.637329101563	-623.9066162109376	-299.6280212402344	1125.18115234375	-734.7841186523439	-278.2745971679688	1100.75732421875	-679.9135742187501	-245.4321899414063	1100.2265625	-765.2016601562501	-203.2749633789063	1039.343872070313	-1046.798950195313	-338.3556823730469	1125.00390625	-940.0115966796877	-351.2791137695313	1092.640014648438	-965.1834106445315	-348.2184448242188	1096.096801757813	-909.8239746093752	-289.0331115722657	791.901306152344	-1140.006469726563	-249.2519836425782	719.3283081054689	-1157.751708984375	-202.2667236328126	726.5180053710939	-1154.89697265625	-269.4553222656251	662.2691650390626	-1151.055297851563	-270.8054504394532	561.1035156250001	-1152.285278320313	-224.7471771240235	415.8027954101564	-1158.82177734375	-297.2491455078126	382.0041809082032	-1196.863037109375	-254.3122711181641	374.6753845214844	-1189.209228515625	-247.5350341796876	290.0701293945313	-1171.051391601563	-333.3912353515626	167.746826171875	-1190.327392578125	-288.9458007812501	163.1574249267578	-1120.322143554688	-382.9870300292969	142.7295074462891	-1129.309448242188	-189.7005310058594	60.28481292724611	-1167.300537109375	-198.3247070312501	57.66328811645509	-1205.578369140625	-257.4703674316407	46.36460876464844	-1239.626586914063	-263.8105468750001	863.5796508789065	-737.3627929687501	-225.3332977294922	809.7727661132815	-725.1182861328126	-194.0115966796876	809.0191650390627	-735.2271728515626	-246.5664520263672	731.5296630859376	-714.8538818359376	-279.7440795898438	564.8703613281251	-717.8516845703126	-229.5268707275391	379.1286010742188	-720.0910644531251	-299.8474121093751	309.6954345703126	-670.6610107421876	-255.3214721679688	303.7359008789063	-684.0169067382814	-252.7778472900391	253.4753570556641	-715.2200927734376	-326.9879150390626	169.5428314208985	-682.0686035156251	-286.7850952148438	166.186279296875	-745.3791503906251	-371.9576416015626	143.3364562988282	-745.2157592773439	-186.5247039794922	61.54054260253908	-696.8543090820314	-198.5315551757813	58.3316116333008	-653.0059814453126	-258.4553222656251	52.48704910278322	-623.1081542968751	-59.02986145019533	1743.581420898438	-884.5694580078127	-195.7849578857422	1046.347900390625	-844.8951416015627	
819	4.09	-189.3735809326172	1712.56103515625	-1027.436645507813	-191.4434509277344	1709.902709960938	-888.615173339844	-232.3322143554688	1566.475219726563	-952.148620605469	-308.0510559082032	1276.27294921875	-942.7626953125002	-94.8033905029297	1515.6748046875	-952.928894042969	-166.5715942382813	1577.361938476563	-1089.993286132813	-210.1286773681641	1446.431030273438	-1201.986450195313	-204.9851074218751	1402.285400390625	-1179.70361328125	-236.7369537353516	1390.419677734375	-1228.44482421875	-287.9977416992188	1346.345092773438	-1278.396728515625	-348.8225708007813	1343.816040039063	-1244.771850585938	-277.6002502441407	1119.568237304688	-1150.458129882813	-260.9318542480469	1102.303833007813	-1213.120239257813	-230.6519622802735	1084.483032226563	-1120.478759765625	-159.0147552490235	1570.97607421875	-824.8245239257815	-258.9196777343751	1482.724365234375	-681.6932373046876	-230.6194458007813	1443.780883789063	-672.2551269531251	-278.5721435546876	1431.937255859375	-636.6494140625001	-297.0374755859376	1360.05224609375	-598.4582519531251	-358.1863708496094	1369.461059570313	-624.1193237304689	-297.7770385742188	1139.595947265625	-736.2106933593751	-276.6986083984376	1114.936767578125	-681.1676635742189	-243.0950317382813	1114.772216796875	-766.1487426757814	-198.5895996093751	1055.042114257813	-1047.172973632813	-333.6645812988282	1138.787231445313	-939.9585571289065	-346.3522338867188	1106.668579101563	-965.1416625976565	-342.0344238281251	1108.960327148438	-910.3370361328127	-288.7759399414063	807.130554199219	-1137.068969726563	-252.5750274658204	732.3770751953126	-1152.633178710938	-205.3840026855469	737.7566528320314	-1149.5205078125	-275.9461669921876	676.2611083984376	-1145.37646484375	-281.7278137207032	574.9885864257814	-1146.125	-230.9255065917969	432.5306396484376	-1154.840454101563	-301.6164245605469	396.6391601562501	-1194.072875976563	-258.4661865234376	390.9834899902345	-1186.4755859375	-247.3375091552735	306.0924072265626	-1170.980590820313	-326.5713195800782	180.7255249023438	-1193.684814453125	-281.0279235839844	175.6697082519532	-1124.058959960938	-374.7168884277344	159.8237915039063	-1132.262451171875	-185.8193511962891	67.17520141601564	-1168.3046875	-194.4136199951172	64.08190917968751	-1206.625366210938	-254.2293853759766	53.5033302307129	-1240.143310546875	-260.4739685058594	877.6533203125002	-740.5173950195314	-224.9082183837891	821.2618408203127	-729.2608642578126	-193.2324676513672	820.0129394531252	-739.9959106445314	-249.6947021484376	744.7171630859376	-720.2728881835939	-291.7694091796876	579.0172729492189	-724.5739135742189	-233.9934844970704	395.8174133300782	-723.1384887695314	-300.6720581054688	324.3731994628907	-670.8305664062501	-255.8409271240235	320.3530883789063	-684.2158813476564	-251.2020568847657	269.4130249023438	-713.7990112304689	-321.0213928222657	183.0536651611328	-677.7689819335939	-281.1645507812501	178.2892608642578	-740.9850463867189	-365.1012268066407	160.8672485351563	-739.7805786132814	-183.6005096435547	68.25000000000001	-695.7791748046876	-194.7505187988282	64.52035522460939	-651.8504028320314	-254.5833282470704	60.54705047607423	-621.4869995117189	-59.81674957275392	1758.345092773438	-885.2495727539065	-190.3109283447266	1061.331420898438	-845.432067871094	
820	4.095	-191.6720275878907	1727.856689453125	-1027.71484375	-193.2476501464844	1725.808715820313	-888.8882446289065	-234.8812561035157	1581.1875	-951.6035156250002	-307.1471252441407	1291.090698242188	-942.446960449219	-97.6188659667969	1531.446411132813	-952.914245605469	-170.6325988769532	1592.591430664063	-1089.194946289063	-211.5748596191407	1461.812744140625	-1202.053466796875	-205.8341369628907	1417.796997070313	-1179.321166992188	-237.2985534667969	1405.487426757813	-1228.478393554688	-287.8999023437501	1361.0498046875	-1279.003784179688	-349.1372375488282	1357.667236328125	-1245.684692382813	-274.0308837890626	1134.145263671875	-1150.9697265625	-257.9420776367188	1117.349487304688	-1213.716552734375	-226.0941925048829	1099.31640625	-1121.032470703125	-161.8186187744141	1585.6220703125	-824.6516113281252	-259.9039001464844	1496.691772460938	-681.4931640625001	-231.7324523925782	1457.263793945313	-672.3892211914064	-278.9979248046876	1445.621459960938	-636.5991210937501	-297.4470520019532	1373.840576171875	-598.6137695312501	-358.9723510742188	1382.767456054688	-624.2280883789064	-296.0589599609376	1153.53369140625	-737.6809082031251	-275.4310913085938	1128.897827148438	-682.4738769531251	-240.0445404052735	1128.689697265625	-766.7585449218751	-194.3765411376954	1070.493774414063	-1047.486328125	-328.7726135253907	1152.66796875	-939.9403076171877	-341.6660766601563	1120.420532226563	-965.2136840820315	-338.3203125000001	1122.94873046875	-910.2085571289065	-289.1170349121094	821.2554321289065	-1134.332763671875	-256.7817993164063	744.8137207031251	-1148.290405273438	-209.1758117675782	748.7365112304689	-1144.809326171875	-282.6275024414063	689.8711547851564	-1138.788208007813	-291.7077026367188	589.2052001953126	-1140.740112304688	-235.1138916015626	449.7582092285157	-1151.35986328125	-304.7813415527344	411.607391357422	-1190.86181640625	-261.5978698730469	407.7179260253907	-1183.998901367188	-246.8964385986329	323.1030883789063	-1170.441528320313	-319.4084777832032	195.696029663086	-1196.173217773438	-274.1618652343751	190.9230651855469	-1126.394775390625	-361.6751098632813	174.14013671875	-1131.605346679688	-180.7669525146485	76.48203277587892	-1169.05908203125	-189.7922668457032	72.73016357421876	-1207.266357421875	-250.3388977050782	63.54592132568361	-1240.476440429688	-257.4813537597657	890.9702758789065	-742.7917480468751	-224.4039611816407	832.417663574219	-736.2711181640626	-193.3314361572266	831.0644531250002	-751.6495971679689	-252.7049865722657	757.4394531250001	-724.9106445312501	-302.1983947753907	593.5156860351564	-730.5979003906251	-237.0013732910157	413.1666870117189	-726.4448242187501	-300.8888854980469	340.3520507812501	-671.4329833984376	-256.2801208496094	337.8769226074219	-685.7361450195314	-249.6471862792969	286.2949523925782	-713.6806640625001	-315.3287353515626	198.8399353027344	-674.4723510742189	-275.1919860839844	194.0845642089844	-738.6436157226564	-359.1576843261719	178.5154571533203	-735.2388916015626	-179.951644897461	76.71736907958986	-695.7893066406251	-191.1284484863282	73.01200103759767	-652.0856933593751	-249.6871490478516	70.9999465942383	-619.9418334960939	-60.61872863769533	1772.584228515625	-886.2473754882815	-185.1392669677735	1076.475463867188	-845.8310546875002	
821	4.1	-193.8553314208985	1742.499755859375	-1027.635864257813	-194.7148590087891	1741.1015625	-889.1726074218752	-237.3846435546876	1595.184204101563	-950.9324340820315	-306.4188232421876	1305.544921875	-942.2075195312502	-100.1167221069336	1546.279418945313	-952.9200439453127	-174.34423828125	1607.021728515625	-1088.399291992188	-212.8538360595704	1476.641723632813	-1202.44482421875	-207.2349548339844	1432.612426757813	-1179.154052734375	-238.0196685791016	1420.05859375	-1228.790405273438	-287.8374328613282	1375.21630859375	-1279.766357421875	-349.2404785156251	1371.041870117188	-1247.014526367188	-270.6414184570313	1148.485229492188	-1151.251098632813	-254.3801574707032	1131.922973632813	-1214.024780273438	-222.5659484863282	1113.93603515625	-1121.62158203125	-164.3681030273438	1599.43896484375	-824.4019165039065	-260.6701354980469	1509.83349609375	-681.2709350585939	-232.5605773925782	1470.748168945313	-672.4855957031251	-279.8432922363282	1458.533203125	-636.6203613281251	-298.2460632324219	1386.136962890625	-598.3880004882814	-359.6473999023438	1395.720092773438	-624.1333618164064	-294.2151489257813	1167.055053710938	-739.0444335937501	-273.8918762207032	1142.162353515625	-683.7773437500001	-237.4164581298829	1142.212036132813	-767.3949584960939	-190.3802032470703	1085.310791015625	-1047.790405273438	-324.5635375976563	1166.6162109375	-940.0385742187502	-337.3643188476563	1134.331787109375	-965.321228027344	-333.1165466308594	1136.66162109375	-910.6304321289065	-290.2235107421876	834.7320556640627	-1131.701904296875	-260.9398193359376	757.1912231445314	-1144.735717773438	-212.9989318847657	759.7181396484376	-1141.136474609375	-287.9046020507813	703.3389892578126	-1133.06396484375	-298.8053283691407	603.3316040039064	-1135.813110351563	-237.8881225585938	466.8808593750001	-1148.314453125	-306.9522705078126	427.2317810058595	-1187.464233398438	-263.5020141601563	424.6720275878907	-1181.790405273438	-246.5998687744141	340.0012817382813	-1169.465698242188	-314.7623291015626	211.1582794189454	-1197.251831054688	-270.0955505371094	206.9874267578126	-1127.592651367188	-362.1462097167969	192.4192657470704	-1135.100219726563	-176.2928466796875	88.28130340576173	-1169.417724609375	-185.7884826660157	83.84056854248048	-1207.526489257813	-246.8573760986329	75.65713500976564	-1240.646728515625	-255.2789154052735	903.4980468750002	-744.5383300781251	-223.6109771728516	846.839538574219	-739.9813232421876	-193.3299407958985	841.6469726562502	-755.1688232421876	-255.9122924804688	770.0578613281252	-729.0081787109376	-309.8511352539063	607.8304443359376	-735.6315917968751	-239.7147216796876	430.6155700683595	-730.0352783203126	-300.5519409179688	356.9179687500001	-672.4172973632814	-256.2066955566407	355.4865417480469	-687.6348876953126	-249.3179168701172	303.7210388183594	-714.7649536132814	-311.9707031250001	215.1544799804688	-673.6320190429689	-271.9880676269532	210.7312927246094	-737.5513305664064	-355.6309509277344	194.089096069336	-733.3277587890626	-177.4483032226563	86.68479156494142	-696.2089843750001	-187.1818389892578	82.8588104248047	-651.2190551757814	-245.9419250488282	83.99098205566408	-618.9677124023439	-61.06774139404298	1785.997192382813	-887.2437744140627	-179.8536224365235	1089.940307617188	-846.8814086914065	
